<?xml version="1.0" encoding="UTF-8"?>
<svg version="1.1" xmlns="http://www.w3.org/2000/svg" width="70" height="66">
<path d="M0 0 C2 1 2 1 2.86962891 3.04125977 C3.15241699 3.91580811 3.43520508 4.79035645 3.7265625 5.69140625 C4.00580566 6.54162354 4.28504883 7.39184082 4.57275391 8.26782227 C4.91999512 9.35506592 5.26723633 10.44230957 5.625 11.5625 C6.73875 15.006875 7.8525 18.45125 9 22 C17.25 22.33 25.5 22.66 34 23 C32.14638327 26.70723345 31.48280199 27.70179832 28.375 30.015625 C27.66859375 30.54414063 26.9621875 31.07265625 26.234375 31.6171875 C25.49703125 32.15601563 24.7596875 32.69484375 24 33.25 C22.89398438 34.08144531 22.89398438 34.08144531 21.765625 34.9296875 C16.27170567 39 16.27170567 39 14 39 C14.20681396 39.57443848 14.41362793 40.14887695 14.62670898 40.74072266 C15.56888651 43.36696644 16.50324679 45.99592736 17.4375 48.625 C17.76298828 49.52863281 18.08847656 50.43226562 18.42382812 51.36328125 C20.0292727 55.89824841 21.43319834 60.1941606 22 65 C15.95139124 61.05720318 10.1655282 56.89593335 4.48046875 52.44140625 C2.19805586 50.77964176 2.19805586 50.77964176 0.09741211 51.23974609 C-2.28373438 52.10284587 -3.99714913 53.22552789 -6.0390625 54.72265625 C-7.15667969 55.52993164 -7.15667969 55.52993164 -8.296875 56.35351562 C-9.06515625 56.91748047 -9.8334375 57.48144531 -10.625 58.0625 C-12.15577282 59.18260868 -13.68948716 60.29871202 -15.2265625 61.41015625 C-16.24097412 62.15471069 -16.24097412 62.15471069 -17.27587891 62.91430664 C-19 64 -19 64 -21 64 C-19.19169588 57.04076899 -17.12816216 50.22680412 -14.76953125 43.43359375 C-13.89950081 41.10757152 -13.89950081 41.10757152 -14 39 C-15.563002 37.61505459 -15.563002 37.61505459 -17.61328125 36.25 C-18.36673828 35.7240625 -19.12019531 35.198125 -19.89648438 34.65625 C-20.69376953 34.1096875 -21.49105469 33.563125 -22.3125 33 C-23.09818359 32.4534375 -23.88386719 31.906875 -24.69335938 31.34375 C-27.77807435 29.2015139 -30.87508719 27.08327521 -34 25 C-34 24.34 -34 23.68 -34 23 C-25.09 23 -16.18 23 -7 23 C-6.34 20.03 -5.68 17.06 -5 14 C-4.17052649 11.46382189 -3.29859782 8.94093619 -2.375 6.4375 C-1.70597656 4.61025391 -1.70597656 4.61025391 -1.0234375 2.74609375 C-0.68570313 1.83988281 -0.34796875 0.93367187 0 0 Z " fill="#5A4FA3" transform="translate(35,1)"/>
<path d="M0 0 C3 1 3 1 3.99902344 2.99365234 C4.42489746 4.2768335 4.42489746 4.2768335 4.859375 5.5859375 C5.17003906 6.51664063 5.48070313 7.44734375 5.80078125 8.40625 C6.11402344 9.3859375 6.42726563 10.365625 6.75 11.375 C7.07871094 12.34695312 7.40742187 13.31890625 7.74609375 14.3203125 C10.13119011 21.60642966 10.13119011 21.60642966 9 25 C3.66666667 21 -1.66666667 17 -7 13 C-7.74024414 12.48606689 -8.48048828 11.97213379 -9.24316406 11.44262695 C-9.82291992 10.96656006 -10.40267578 10.49049316 -11 10 C-11 9.34 -11 8.68 -11 8 C-8.69921875 6.01953125 -8.69921875 6.01953125 -5.6875 3.8125 C-4.70136719 3.07644531 -3.71523438 2.34039062 -2.69921875 1.58203125 C-1.36310547 0.79892578 -1.36310547 0.79892578 0 0 Z " fill="#232E4E" transform="translate(47,41)"/>
<path d="M0 0 C8.25 0 16.5 0 25 0 C22 11 22 11 21 14 C15.94859026 13.51891336 12.77135608 11.04553542 8.8125 8.125 C8.18408203 7.67769531 7.55566406 7.23039062 6.90820312 6.76953125 C4.02420099 4.67824414 1.99332541 2.98998811 0 0 Z " fill="#1D2947" transform="translate(2,25)"/>
<path d="M0 0 C2.42130331 2.42130331 2.52840504 3.80111377 3.125 7.125 C3.29257812 8.03507812 3.46015625 8.94515625 3.6328125 9.8828125 C3.81457031 10.93082031 3.81457031 10.93082031 4 12 C1.5 10.6875 1.5 10.6875 -1 9 C-1 8.01 -1 7.02 -1 6 C-0.34 6 0.32 6 1 6 C0.16666667 3.83333333 0.16666667 3.83333333 -2 3 C-1.34 2.01 -0.68 1.02 0 0 Z " fill="#4B5468" transform="translate(53,54)"/>
<path d="M0 0 C0.33 0.66 0.66 1.32 1 2 C1.99 2.33 2.98 2.66 4 3 C3.67 3.99 3.34 4.98 3 6 C0.4375 7.1875 0.4375 7.1875 -2 8 C-1.34 5.36 -0.68 2.72 0 0 Z " fill="#7A6FAF" transform="translate(16,57)"/>
<path d="M0 0 C2.31 0.33 4.62 0.66 7 1 C7 4 7 4 6 6 C3.97945196 4.35830472 1.97956942 2.69088222 0 1 C0 0.67 0 0.34 0 0 Z " fill="#343A53" transform="translate(2,25)"/>
<path d="M0 0 C0.66 0.33 1.32 0.66 2 1 C1.25 6.75 1.25 6.75 -1 9 C-2.0326802 6.21176345 -2.04509293 5.1322726 -1.0625 2.25 C-0.711875 1.5075 -0.36125 0.765 0 0 Z " fill="#6F63AD" transform="translate(35,1)"/>
</svg>
